<svg xmlns="http://www.w3.org/2000/svg" viewBox="0 0 133.29 173.04"><defs><style>.cls-1{fill:#316662;}.cls-2{fill:#5a9693;}.cls-3{fill:#508784;}.cls-4{fill:#e68c6e;}.cls-5{fill:#d98568;}.cls-6{fill:#67ada9;}.cls-7{fill:#36706c;}.cls-8{fill:#ffe19f;}.cls-9{fill:#7cd1cc;}.cls-10{fill:#6eb7b1;}.cls-11{fill:#ffc661;}</style></defs><g id="Layer_2" data-name="Layer 2"><g id="Layer_1-2" data-name="Layer 1"><polygon class="cls-1" points="27.16 68.35 32.49 68.73 33.51 74.89 23.65 73.6 27.16 68.35"/><path class="cls-1" d="M113.61,74a4,4,0,0,1,2.83-3.3l9.58,0,2.65,7.79L113,77Z"/><path class="cls-2" d="M61.58,80.69s9.73-70,13.93-74.53,10.58-2.63,12.09,0C89.94,10.23,96,82.48,96,82.48h9.22s-8.51-73.66-17.11-80-16.49.4-19,7.26S52.57,77.86,52.57,77.86Z"/><path class="cls-3" d="M22.63,114.58S1.54,133.51,0,145.21l1.08,18.1s1.69-1.22,2.32-4.88c1.29-7.58,4.8-14.49,10.53-21.73C23.4,124.74,25.86,123,25.86,123Z"/><path class="cls-4" d="M13.93,73.1l15.14,94s78,1.87,84-.67,22.42-71,20-87.3Z"/><path class="cls-5" d="M113,166.4c3.59-1.51,10.9-26.59,15.69-50-7,12.16-17.77,27.43-30.45,32.7-22.25,9.25-69.2,18-69.2,18S107,168.94,113,166.4Z"/><path class="cls-6" d="M130.82,105.28c1.94-11.35,3-21.25,2.24-26.22l-119.13-6,4.78,29.64Z"/><path class="cls-7" d="M64.8,71s-21.09.92-33.4,0S13.59,71,13.93,73.1s23.93,8.69,48.25,7.46S92,81.64,103.43,82.72s28.53.78,29.63-3.62C133.52,77.25,77.88,69.48,64.8,71Z"/><path class="cls-6" d="M47.59,80.67s9.6-67.46,15-72.91c4.74-4.73,12.07-2.87,13.62,0,1.68,3.09,8.9,73,8.9,73L95.52,82s-8.4-71.23-18.1-77.75-19.16.18-21.93,7.28-17,68-17,68Z"/><path class="cls-8" d="M21,100.1h0l-1.5,0a.12.12,0,0,1-.12-.13.12.12,0,0,1,.12-.12h0l1.5,0a.13.13,0,0,1,.13.13A.13.13,0,0,1,21,100.1Z"/><path class="cls-8" d="M125.66,102.93h0l-3.07-.08a.13.13,0,0,1-.13-.13.14.14,0,0,1,.13-.12h0l3.08.08a.13.13,0,0,1,.12.13A.12.12,0,0,1,125.66,102.93Zm-6.16-.16h0l-3.08-.09a.12.12,0,0,1-.12-.12.14.14,0,0,1,.13-.13l3.07.09a.13.13,0,0,1,.13.13A.14.14,0,0,1,119.5,102.77Zm-6.15-.17h0l-3.07-.08a.13.13,0,0,1-.13-.13.13.13,0,0,1,.13-.12h0l3.08.08a.12.12,0,0,1,.12.13A.12.12,0,0,1,113.35,102.6Zm-6.16-.17h0l-3.08-.08a.12.12,0,0,1-.12-.13.12.12,0,0,1,.12-.12h0l3.07.08a.14.14,0,0,1,.13.13A.13.13,0,0,1,107.19,102.43Zm-6.15-.16h0L98,102.18a.12.12,0,0,1-.13-.12.14.14,0,0,1,.13-.13h0L101,102a.12.12,0,0,1,.12.13A.13.13,0,0,1,101,102.27Zm-6.16-.17h0L91.8,102a.12.12,0,0,1-.12-.13.12.12,0,0,1,.12-.12h0l3.07.08A.13.13,0,0,1,95,102,.13.13,0,0,1,94.88,102.1Zm-6.15-.17h0l-3.07-.08a.13.13,0,0,1-.13-.13.13.13,0,0,1,.13-.12h0l3.08.08a.13.13,0,0,1,.12.13A.12.12,0,0,1,88.73,101.93Zm-6.16-.16h0l-3.08-.09a.12.12,0,0,1-.12-.12.13.13,0,0,1,.12-.13h0l3.07.09a.13.13,0,0,1,.13.13A.14.14,0,0,1,82.57,101.77Zm-6.15-.17h0l-3.07-.08a.14.14,0,0,1-.13-.13.13.13,0,0,1,.13-.12h0l3.08.08a.12.12,0,0,1,.12.13A.12.12,0,0,1,76.42,101.6Zm-6.16-.17h0l-3.08-.08a.12.12,0,0,1-.12-.13.12.12,0,0,1,.12-.12h0l3.07.08a.14.14,0,0,1,.13.13A.13.13,0,0,1,70.26,101.43Zm-6.15-.16h0L61,101.18a.13.13,0,0,1-.13-.12.13.13,0,0,1,.13-.13l3.08.09a.12.12,0,0,1,.12.12A.13.13,0,0,1,64.11,101.27ZM58,101.1h0L54.87,101a.13.13,0,0,1-.12-.13.12.12,0,0,1,.12-.12h0l3.07.08a.13.13,0,0,1,.13.13A.13.13,0,0,1,58,101.1Zm-6.15-.17h0l-3.07-.08a.13.13,0,0,1-.13-.13.12.12,0,0,1,.13-.12l3.08.08a.13.13,0,0,1,.12.13A.12.12,0,0,1,51.8,100.93Zm-6.16-.16h0l-3.08-.09a.12.12,0,0,1-.12-.13.13.13,0,0,1,.12-.12h0l3.07.09a.13.13,0,0,1,.13.12A.14.14,0,0,1,45.64,100.77Zm-6.15-.17h0l-3.07-.08a.14.14,0,0,1-.13-.13.13.13,0,0,1,.13-.12h0l3.08.08a.12.12,0,0,1,.12.13A.12.12,0,0,1,39.49,100.6Zm-6.16-.17h0l-3.08-.08a.12.12,0,0,1-.12-.13c0-.07.06-.11.13-.12l3.07.08a.13.13,0,0,1,.13.13A.13.13,0,0,1,33.33,100.43Zm-6.15-.16h0l-3.07-.09a.13.13,0,0,1-.13-.13.14.14,0,0,1,.13-.12h0l3.08.09a.12.12,0,0,1,.12.12A.13.13,0,0,1,27.18,100.27Z"/><path class="cls-8" d="M130.23,103.06h0l-1.5,0a.12.12,0,0,1-.12-.13.12.12,0,0,1,.12-.12h0l1.5,0a.13.13,0,0,1,0,.25Z"/><path class="cls-9" d="M13.93,73.1c1.27,2.52,23.81,7.6,44.43,7.13,4.5-.08,7.51-.43,15.19-.51C94.3,79.61,100,83.5,119,82.9c3.39-.09,13.1-.53,14.08-3.8-.53,2.07-4.39,3-6.49,3.42-14.36,2.77-33.56-.76-37.88-1.18C66.21,79,55.58,84,28.11,78.14,26.23,77.73,14.42,75,13.93,73.1Z"/><path class="cls-10" d="M122.86,92.6A4.9,4.9,0,0,1,118,87.65c0-5.17.46-12.79.08-14.71-.46-2.33-1.59-2.28-1.59-2.28l9.49,0a2,2,0,0,1,1.93,1.37,39.53,39.53,0,0,1,1.85,8.12,58.36,58.36,0,0,1,.52,7.49,4.9,4.9,0,0,1-4.91,4.94Z"/><path class="cls-8" d="M129.3,87.78h-.06a.25.25,0,0,1-.18-.3,5.21,5.21,0,0,0,.17-1.42.26.26,0,0,1,.25-.26h0a.25.25,0,0,1,.25.25,5.73,5.73,0,0,1-.19,1.55A.25.25,0,0,1,129.3,87.78Z"/><path class="cls-8" d="M125.69,91.22a.25.25,0,0,1-.24-.23.24.24,0,0,1,.22-.27,3.46,3.46,0,0,0,2.18-1.07.25.25,0,0,1,.36,0,.25.25,0,0,1,0,.35,4,4,0,0,1-2.49,1.22Zm-2.65,0h0A4,4,0,0,1,120.53,90a.25.25,0,0,1,0-.36.26.26,0,0,1,.36,0,3.46,3.46,0,0,0,2.17,1.07.25.25,0,0,1,0,.5Z"/><path class="cls-8" d="M119.43,87.76a.26.26,0,0,1-.24-.19A5.77,5.77,0,0,1,119,86a.25.25,0,0,1,.25-.25.25.25,0,0,1,.25.25,5.16,5.16,0,0,0,.17,1.42.26.26,0,0,1-.19.31Z"/><path class="cls-11" d="M35.7,82.1h-10a2.58,2.58,0,0,1,0-5.15h10a2.58,2.58,0,0,1,0,5.15ZM25.72,78a1.58,1.58,0,0,0,0,3.15h10a1.58,1.58,0,0,0,0-3.15Z"/><path class="cls-9" d="M66.22,91.1a5.79,5.79,0,0,1,5.17-4.75c7.31-.8,26-2.32,35,1.92,11.33,5.33-7.6,6.83-27.47,8.16C67.72,97.18,65.78,94,66.22,91.1Z"/><path class="cls-11" d="M35.7,88.27h-10a2.58,2.58,0,0,1,0-5.15h10a2.58,2.58,0,0,1,0,5.15Zm-10-4.15a1.58,1.58,0,0,0,0,3.15h10a1.58,1.58,0,0,0,0-3.15Z"/><rect class="cls-11" x="28.47" y="81.39" width="4.51" height="2.73"/><path class="cls-3" d="M25.4,86.72S29,148.65,28.94,154.9c0,2.55-1.08,12.83-1.08,12.83l5.08-.51s1.23-1.39,3-9.24.85-71.26.85-71.26Z"/><path class="cls-10" d="M27.16,68.35l-.55,10.12H35.7V69.64a1.29,1.29,0,0,0-1.29-1.29Z"/><path class="cls-6" d="M36.16,156.59s-4,9.86-20.15,5.55S0,145.21,0,145.21l.94,17.23a4.19,4.19,0,0,0,2.58,3.66c5.42,2.27,18.4,7.42,23.34,6.9C33.17,172.33,35.83,160.62,36.16,156.59Z"/></g></g></svg>