<svg xmlns="http://www.w3.org/2000/svg" viewBox="0 0 190.14 261.19"><defs><style>.cls-1{isolation:isolate;}.cls-2,.cls-5{fill:#c61937;}.cls-3{fill:#ff1900;}.cls-4{fill:#ff1d3b;}.cls-5{opacity:0.78;mix-blend-mode:multiply;}.cls-6{fill:#4b314c;}.cls-7{fill:#745075;}.cls-8{fill:#ffce00;}.cls-9{fill:#3c233d;}.cls-10{fill:#ffd15f;}.cls-11{fill:#ff875f;}.cls-12{fill:#fff983;}.cls-13{fill:#ffa18b;opacity:0.24;mix-blend-mode:screen;}</style></defs><g class="cls-1"><g id="Layer_2" data-name="Layer 2"><g id="Layer_1-2" data-name="Layer 1"><path class="cls-2" d="M61.52,2.31,69.43,0S81.22,10.07,95.07,8.82a66.24,66.24,0,0,0,24.6-7.48l12.69,3.12S113.21,54.18,96.94,49.62,61.52,2.31,61.52,2.31Z"/><path class="cls-3" d="M55.46,44s.29,12.63,1.72,16.36S61.2,71,61.2,71l3.16,23.83H123.5l2.58-25.41s5.17-12.2,5.17-15.93V41.87c0-.9,0-1.8.13-2.7C132,33,134.92,9.9,137.6,5.75L119.67,1.34s-10.24,32.82-28.32,29S69.43,0,69.43,0L50.1,5.65S59.77,36,55.46,44Z"/><path class="cls-4" d="M64.36,94.83H123.5s36,45.16,52.05,96.07,14.55,54.74,14.55,54.74-43.25,21.81-79.62,13.78S24,268.57,0,244.57C0,244.57,35.75,123.44,64.36,94.83Z"/><path class="cls-5" d="M147.71,259.34A171,171,0,0,0,180.15,250c-9.24-32.39-44.24-136.14-56.65-143.09C123.5,106.89,142.68,211.53,147.71,259.34Z"/><path class="cls-5" d="M111.44,103.44s31,121.72,12.06,132.05S111.44,103.44,111.44,103.44Z"/><path class="cls-5" d="M17.61,254.68C32,259,49.76,258.11,67.66,257.45,66.46,200.17,79.86,100,79.86,100,50,116.85,27.47,207.56,17.61,254.68Z"/><path class="cls-5" d="M94.22,103.44s-16.65,99.9-4.6,99.9S94.22,103.44,94.22,103.44Z"/><path class="cls-5" d="M82.24,88.4c-15-7.48-19.31-61.11-27.93-84L50.1,5.65S59.77,36,55.46,44c0,0,.29,12.63,1.72,16.36S61.2,71,61.2,71l3.16,23.83H123.5l.7-6.94C117.42,90.57,95.39,94.94,82.24,88.4Z"/><path class="cls-6" d="M93.83,97.58c-17.09,0-28.07-1.3-30.63-2.36l.37-3c2,.81,13.19,2.39,30.26,2.39s29.39-2.16,30.44-2.45l-.07,3.08C123.11,95.51,111.19,97.58,93.83,97.58Z"/><path class="cls-7" d="M98.34,96.07a2.82,2.82,0,0,1-.41,1.47c-.71,0-1.45,0-2.19,0l-1.74,0-.75,0c-7-.19-12.11-1.15-14.48-2a1.42,1.42,0,0,1-.9-1.68h0a1.45,1.45,0,0,1,1.84-1,55.76,55.76,0,0,0,13.56,1.75l.74,0,1.73,0q1.1,0,2.16,0A2.88,2.88,0,0,1,98.34,96.07Z"/><path class="cls-7" d="M97.64,97.54h0c-5,.16-14.21-.33-18.86-2a1.43,1.43,0,0,1-.89-1.68,1.45,1.45,0,0,1,1.4-1.12,1.61,1.61,0,0,1,.43.07c4.8,1.48,12.6,1.86,17.88,1.77A1.9,1.9,0,0,1,97.64,97.54Z"/><path class="cls-8" d="M98.93,97.51c-1.76,2.95-7.61,3-9.41,0,.46,0,.76,0,1.32,0a5,5,0,0,0,3.38,1.17,4.92,4.92,0,0,0,3.42-1.2c2.63-2.88-3.42-5.76-6.61-3.1-.45,0-.93,0-1.37-.09a5.72,5.72,0,0,1,4.56-1.95C98,92.4,100.36,95.17,98.93,97.51Z"/><path class="cls-9" d="M98.34,96.06a.38.38,0,1,1-.38-.39A.38.38,0,0,1,98.34,96.06Z"/><path class="cls-10" d="M98.68,96.44H98a.37.37,0,0,1-.38-.37h0a.38.38,0,0,1,.38-.38h.69a.38.38,0,0,1,.38.38h0A.37.37,0,0,1,98.68,96.44Z"/><path class="cls-11" d="M99,96a.37.37,0,0,1-.36.28h-1a.34.34,0,0,0,.31.18h.69a.37.37,0,0,0,.38-.37A.29.29,0,0,0,99,96Z"/><path class="cls-12" d="M91.57,93.43c2.84-1.16,5.31-.53,6.69.85a.25.25,0,0,1-.35.36s0,0,0,0C96.74,93.28,94.42,92.5,91.57,93.43Z"/><path class="cls-12" d="M91.6,99.06c2.85,1.12,5.32.47,6.68-.93a.25.25,0,1,0-.35-.35s0,0,0,0C96.78,99.15,94.47,100,91.6,99.06Z"/><path class="cls-13" d="M83.87,36.42A12.25,12.25,0,0,0,74.5,54c0,.11.11.22.17.33,5.75,11,41.08,18.5,48.83,6.75C131,49.75,134.72,29.61,83.87,36.42Z"/></g></g></g></svg>