<svg xmlns="http://www.w3.org/2000/svg" viewBox="0 0 202.8 81.71"><defs><style>.cls-1{isolation:isolate;}.cls-2{fill:#ff751d;}.cls-3{fill:#ff951d;}.cls-4{fill:#ffbd1d;}.cls-5{fill:#cc3403;}.cls-6{fill:#ff1932;}.cls-7{fill:#d81809;}.cls-8{fill:#ff891d;opacity:0.33;mix-blend-mode:multiply;}.cls-9{fill:#ff4304;}</style></defs><g class="cls-1"><g id="Layer_2" data-name="Layer 2"><g id="Layer_1-2" data-name="Layer 1"><path class="cls-2" d="M152.12,57.81s-34.26,2.27-79.85,8.5c-34.9,4.77-66-1.61-71.45-9.5-2.57-3.71,1.37-7.55,5.45-8.39C17.74,46.05,152.12,57.81,152.12,57.81Z"/><path class="cls-3" d="M106.81.05c-3.68,0-21.81-1.13-30,7.08S72,27.52,55.56,32.61,6.27,48.42,6.27,48.42s15.32-1.65,38,2.32S138.81,81,160.33,81s37.37-1.7,42.47-11.32c0,0-44.74-16.8-59.75-24.12,0,0-3.11-3.35-3.11-12.13s2.55-13.59-7.5-23.64S106.81.05,106.81.05Z"/><path class="cls-4" d="M94.17,4.42S79.38,2.51,76.05,11.56s-2.45,9.12,6.34,13,22.78,1.94,24.78-6.54S97.83,4.42,94.17,4.42Z"/><path class="cls-5" d="M6.27,48.42c51.59-5.81,123.31,32.68,155.2,31.91,10.82.11,28.58,0,37.07-6a15.46,15.46,0,0,0,4.26-4.63c-3.93,7.52-13.67,9.75-22.17,10.91a137.35,137.35,0,0,1-25.61.79L151.84,81C107.12,75,56.77,45.81,6.27,48.42Z"/><path class="cls-6" d="M140.06,45.23l2.61-.14a16.11,16.11,0,0,1-2.21-5.84c-7.38.39-16.79.39-24.34-.8C95.6,35.23,86.51,28.16,67.71,23.89A18.18,18.18,0,0,1,63,29C91.69,34.65,99.53,47.2,140.06,45.23Z"/><path class="cls-7" d="M140.46,39.25a153.49,153.49,0,0,1-15.8,0A14.89,14.89,0,0,1,121.3,45c5.43.45,11.57,1.2,18.76.85.92,0,2.18-.22,3-.28A18.15,18.15,0,0,1,140.46,39.25Z"/><path class="cls-8" d="M202.8,69.71s-44.74-16.8-59.75-24.12c0,0-3.11-3.35-3.11-12.13s2.55-13.59-7.5-23.64S106.81.05,106.81.05h-.42c6.79,7.13,13.86,15.88,16.78,23.84,6.33,17.31-7.67,26.64-7.67,26.64s31.85,14.19,40,22.34A23.55,23.55,0,0,1,160.65,81C182,81,197.73,79.28,202.8,69.71Z"/><path class="cls-4" d="M41.83,40.54S52.79,35.74,63,38,92.33,47,86.83,52.53,34.06,46.6,41.83,40.54Z"/><path class="cls-9" d="M118.17,41.37c1.23-9,.74-25.07-4.62-31.36-3.59-4.24-9-1.45-10.2,2.59-2.81,8.29,8.23,22,14.68,27.81C118.07,40.73,118.12,41.05,118.17,41.37ZM107.78,12.79c1.14-1,1.81-1.36,2.82-.15,4.12,4.32,6.56,21.78,7.41,27.64C114.32,34.26,103.61,17.78,107.78,12.79Z"/><path class="cls-9" d="M147.81,32.47c7.43-7.64-2.87-12.87-3-13-10.95-5.61-20.43,10.13-23.55,21,6.27-9.81,16.06-24.22,23.9-15.88,3.85,3.67-2.26,7.38-7,9.74a133.75,133.75,0,0,1-16.87,6.14,59,59,0,0,0,18.08-3.26A24,24,0,0,0,147.81,32.47Z"/><path class="cls-9" d="M123.1,59.82c-4.65-3.57-4.88-11.34-4.72-17.16a14.81,14.81,0,0,0-.59,4.47c.5,16.41,8.86,18.12,23.9,12.24l-1.38-2.67C135.83,59.45,127.39,62.85,123.1,59.82Z"/><path class="cls-9" d="M148.61,42.57l-2.55,1.59c3.33,5.27,1.26,7.86,1.23,8a5.45,5.45,0,0,1-2.06,1.79c-5.46,3.2-19.78-7.52-24.72-11.59l0,0c5.38,5.1,19,16.78,25.65,13.42a7.64,7.64,0,0,0,3.05-2.34C149.2,53.31,152.5,49.59,148.61,42.57Z"/><path class="cls-9" d="M123.42,40.62a3.62,3.62,0,1,1-3.6-3.24A3.44,3.44,0,0,1,123.42,40.62Z"/></g></g></g></svg>