<svg xmlns="http://www.w3.org/2000/svg" viewBox="0 0 248.96 283.34"><defs><style>.cls-1{fill:#4b7dbe;}.cls-2{fill:#151010;}.cls-3{fill:#43182f;}</style></defs><g id="Layer_2" data-name="Layer 2"><g id="Ñëîé_3" data-name="Ñëîé 3"><path class="cls-1" d="M203,130.13c1.48-1.5,3.5-3.37,6.16-6.52a75,75,0,0,0,9.82-15c13.83-27.22,33.45-43.16,29.2-65.24a38,38,0,0,0-6.39-14.63A67.9,67.9,0,0,0,205.83,0a221.35,221.35,0,0,0-26.42,40.17c-13.16,25.74-18.88,49.48-23.33,68.39-7.33,31.21-4.69,35.45-12.69,55.32-5.73,14.25-15.62,37.93-35.52,43.14-.65.17-7.06-.05-16.75,0H88.75c-41.07,23.45-63.25,30.66-76.08,32.29-2.6.33-11.47,1.28-12.56,5.42-1.32,5,9.44,11.84,13.12,14.19,34.47,21.93,82.09,15.41,118.88,10.37,5.08-.7,14.39-2.1,22.39-9s10.64-15.73,12.57-22.74c10.8-39.42,11.67-66.05,21-84.8,3.39-6.84,7.46-15,15-22.59Z"/><path class="cls-2" d="M237.62,78.11c-5.34,9.47-9.26,13.9-17.93,27.75-4.74,7.56-8.32,13.83-10.51,17.75,1.51,7.36,3.47,17.53,5.42,29.72,2.34,14.57,5.24,32.64,6.44,53.18a357.3,357.3,0,0,1-2,63.61l8.59-.78c.49-3.84,1.22-9.64,2.06-16.68,4.36-36.74,4.74-49.81,7.62-79,4.23-42.74,6.56-46.36,9.48-84.24C248,74,248.59,61.2,249,52.57a149,149,0,0,1-11.34,25.54Z"/><path class="cls-3" d="M88.75,207A195,195,0,0,0,119,179.1a196.88,196.88,0,0,0,33.46-53.5A112.09,112.09,0,0,1,143.9,169c-5.78,13.8-14.86,35.46-34.17,39.93-8.35,1.93-16,0-21-1.85Z"/><path class="cls-2" d="M.67,248a57.79,57.79,0,0,0,12.8,15.85c7.1,6.09,16.09,10.66,40.1,14.71,25.63,4.34,48,7.87,75.11.51,9.7-2.63,16.84-4.65,24.36-10.66,12.52-10,17-23.79,21.82-39.58,1.64-5.33,1.4-5.52,8.29-42,4.3-22.76,5.44-28.43,8.8-36.21a101.78,101.78,0,0,1,17.24-27.07c-13,11.6-19.85,22.92-23.67,31.14-10.87,23.32-5.3,38.12-16.92,69-5.31,14.12-8,21.18-13.53,27.41C123.49,286.49,49.72,265.68,36.65,262a202,202,0,0,1-36-14Z"/><path class="cls-3" d="M203.84,2.44c-21.62,18.61-32.74,37-38.77,49.71-11.67,24.65-18.93,59.21-20.64,67.33-.81,3.85-2.13,10.49-4.73,19.62A245.39,245.39,0,0,1,126.84,174l24-28.88a323.52,323.52,0,0,1,53-142.63Z"/></g></g></svg>