<svg xmlns="http://www.w3.org/2000/svg" viewBox="0 0 276.86 716.65"><defs><style>.cls-1{fill:#0098dc;}.cls-2{fill:#3669b2;}.cls-3{fill:#d76150;}.cls-4{fill:#2eb8e8;}</style></defs><g id="Layer_2" data-name="Layer 2"><g id="Ñëîé_2" data-name="Ñëîé 2"><path class="cls-1" d="M238.56,0S174.89,3.65,138.43,4.41C102,3.65,38.3,0,38.3,0S0,51.36,0,164.22,15.63,698.33,15.63,698.33L101.76,696l39-527.8L175.1,696l86.13,2.36s15.63-421.25,15.63-534.11S238.56,0,238.56,0Z"/><path class="cls-2" d="M140.68,26.46a1.15,1.15,0,1,1,0-2.3c52.53,0,105.17-9.62,105.7-9.72a1.15,1.15,0,0,1,.42,2.27C246.27,16.81,193.43,26.46,140.68,26.46Z"/><path class="cls-2" d="M270.42,95.07a36.28,36.28,0,0,1-5.76-1,1.15,1.15,0,1,1,.48-2.25c3.35.71,5.43,1,5.45,1l-.13,1.14.73.91A1,1,0,0,1,270.42,95.07Zm-12.24-2.64a1.13,1.13,0,0,1-.32-.05c-2.28-.66-4.52-1.4-6.67-2.21A1.15,1.15,0,0,1,252,88c2.09.79,4.28,1.51,6.5,2.15a1.16,1.16,0,0,1-.32,2.27Zm-13-4.92a1.13,1.13,0,0,1-.5-.11A62.25,62.25,0,0,1,238.55,84a1.16,1.16,0,0,1-.35-1.59,1.14,1.14,0,0,1,1.59-.35,61.68,61.68,0,0,0,5.94,3.3,1.15,1.15,0,0,1-.51,2.19ZM233.6,80a1.13,1.13,0,0,1-.75-.28,38.5,38.5,0,0,1-5-5.11,1.15,1.15,0,0,1,1.8-1.44,37,37,0,0,0,4.68,4.8,1.17,1.17,0,0,1,.12,1.63A1.14,1.14,0,0,1,233.6,80ZM225,69.31a1.15,1.15,0,0,1-1-.58c-1.14-2-2.22-4.09-3.21-6.25a1.15,1.15,0,1,1,2.09-1c1,2.11,2,4.15,3.12,6.07a1.14,1.14,0,0,1-.43,1.57A1.1,1.1,0,0,1,225,69.31Zm-5.82-12.56a1.14,1.14,0,0,1-1.08-.75c-.79-2.12-1.54-4.35-2.22-6.64a1.15,1.15,0,0,1,.77-1.44,1.16,1.16,0,0,1,1.44.78c.67,2.24,1.4,4.42,2.17,6.5a1.14,1.14,0,0,1-.68,1.48A1.12,1.12,0,0,1,219.15,56.75Zm-4-13.26A1.16,1.16,0,0,1,214,42.6c-.53-2.25-1-4.56-1.42-6.85a1.14,1.14,0,0,1,.93-1.34,1.16,1.16,0,0,1,1.34.93c.4,2.25.87,4.52,1.4,6.73a1.16,1.16,0,0,1-.86,1.39ZM212.7,29.85a1.15,1.15,0,0,1-1.14-1c-.54-4.27-.65-6.9-.65-7a1.15,1.15,0,0,1,1.1-1.2,1.13,1.13,0,0,1,1.2,1.1s.12,2.66.64,6.82a1.15,1.15,0,0,1-1,1.29Z"/><path class="cls-2" d="M268.39,81.61h-.19c-1.27-.21-31.18-5.36-40.18-24-6.84-14.18-6.92-36-6.92-36.94a1.16,1.16,0,1,1,2.31,0c0,.22.08,22.23,6.69,35.94,8.48,17.6,38.18,22.72,38.48,22.77a1.15,1.15,0,0,1-.19,2.29Z"/><path class="cls-2" d="M251.72,695.73a1.16,1.16,0,0,1-1.16-1.16v-7a1.16,1.16,0,0,1,2.31,0v7A1.16,1.16,0,0,1,251.72,695.73Zm0-13.9a1.15,1.15,0,0,1-1.16-1.15v-6.94a1.16,1.16,0,0,1,2.31,0v6.94A1.15,1.15,0,0,1,251.72,681.83Zm0-13.87a1.16,1.16,0,0,1-1.16-1.16v-6.94a1.16,1.16,0,0,1,2.31,0v6.94A1.16,1.16,0,0,1,251.72,668Zm0-13.88a1.15,1.15,0,0,1-1.16-1.15V646a1.16,1.16,0,0,1,2.31,0v6.94A1.15,1.15,0,0,1,251.72,654.08Zm0-13.87a1.15,1.15,0,0,1-1.16-1.15v-6.94a1.16,1.16,0,0,1,2.31,0v6.94A1.15,1.15,0,0,1,251.72,640.21Zm0-13.87a1.16,1.16,0,0,1-1.16-1.15v-6.94a1.16,1.16,0,0,1,2.31,0v6.94A1.16,1.16,0,0,1,251.72,626.34Zm0-13.87a1.16,1.16,0,0,1-1.16-1.16v-6.92a1.16,1.16,0,1,1,2.31,0v6.92A1.16,1.16,0,0,1,251.72,612.47Zm0-13.86a1.16,1.16,0,0,1-1.16-1.16v-6.93a1.16,1.16,0,1,1,2.31,0v6.93A1.16,1.16,0,0,1,251.72,598.61Zm0-13.88a1.15,1.15,0,0,1-1.16-1.15v-6.93a1.16,1.16,0,1,1,2.31,0v6.93A1.15,1.15,0,0,1,251.72,584.73Zm0-13.87a1.15,1.15,0,0,1-1.16-1.15v-3.66c0-1,0-2.12,0-3.28a1.15,1.15,0,0,1,1.15-1.14h0a1.15,1.15,0,0,1,1.15,1.16c0,1.15,0,2.24,0,3.26v3.66A1.15,1.15,0,0,1,251.72,570.86Zm.11-13.87h0a1.15,1.15,0,0,1-1.13-1.18q.06-3.25.15-6.95a1.2,1.2,0,0,1,1.19-1.12,1.14,1.14,0,0,1,1.12,1.18c-.06,2.45-.11,4.77-.15,6.93A1.17,1.17,0,0,1,251.83,557Zm.35-13.88h0a1.17,1.17,0,0,1-1.12-1.19c.07-2.23.14-4.55.22-6.94a1.13,1.13,0,0,1,1.19-1.12,1.16,1.16,0,0,1,1.12,1.19q-.12,3.6-.22,6.94A1.16,1.16,0,0,1,252.18,543.11Zm.45-13.87h0a1.17,1.17,0,0,1-1.12-1.2l.25-6.93a1.1,1.1,0,0,1,1.2-1.11,1.15,1.15,0,0,1,1.11,1.19l-.25,6.93A1.15,1.15,0,0,1,252.63,529.24Zm.51-13.87h0a1.16,1.16,0,0,1-1.11-1.19l.27-6.94a1.16,1.16,0,0,1,2.31.09l-.27,6.93A1.15,1.15,0,0,1,253.14,515.37Zm.54-13.86h-.05a1.14,1.14,0,0,1-1.1-1.2l.28-6.93a1.12,1.12,0,0,1,1.2-1.1,1.14,1.14,0,0,1,1.1,1.2l-.28,6.93A1.15,1.15,0,0,1,253.68,501.51Zm.57-13.85h-.05a1.15,1.15,0,0,1-1.1-1.2l.29-6.93a1.1,1.1,0,0,1,1.2-1.11,1.17,1.17,0,0,1,1.11,1.21l-.3,6.92A1.15,1.15,0,0,1,254.25,487.66Zm.59-13.85h-.05a1.15,1.15,0,0,1-1.11-1.2l.31-6.93a1.17,1.17,0,0,1,1.2-1.1,1.15,1.15,0,0,1,1.1,1.21l-.3,6.92A1.16,1.16,0,0,1,254.84,473.81Zm.6-13.86h-.05a1.14,1.14,0,0,1-1.1-1.2l.3-6.93a1.13,1.13,0,0,1,1.21-1.1,1.15,1.15,0,0,1,1.1,1.21l-.31,6.92A1.14,1.14,0,0,1,255.44,460Zm.62-13.85H256a1.16,1.16,0,0,1-1.1-1.2l.31-6.93a1.13,1.13,0,0,1,1.21-1.1,1.16,1.16,0,0,1,1.1,1.2l-.31,6.93A1.15,1.15,0,0,1,256.06,446.1Zm.62-13.85h-.06a1.16,1.16,0,0,1-1.1-1.2l.31-6.93A1.12,1.12,0,0,1,257,423a1.15,1.15,0,0,1,1.1,1.2l-.31,6.93A1.15,1.15,0,0,1,256.68,432.25Zm.62-13.85h-.05a1.14,1.14,0,0,1-1.1-1.2l.31-6.95a1.18,1.18,0,0,1,1.2-1.1,1.15,1.15,0,0,1,1.1,1.21l-.31,6.94A1.15,1.15,0,0,1,257.3,418.4Zm.63-13.87h-.06a1.16,1.16,0,0,1-1.1-1.21l.32-6.92a1.11,1.11,0,0,1,1.2-1.1,1.15,1.15,0,0,1,1.1,1.21l-.31,6.91A1.16,1.16,0,0,1,257.93,404.53Zm.62-13.83h-.05a1.15,1.15,0,0,1-1.1-1.2l.31-6.93a1.11,1.11,0,0,1,1.2-1.1,1.15,1.15,0,0,1,1.1,1.21l-.31,6.92A1.15,1.15,0,0,1,258.55,390.7Zm.62-13.85h-.05a1.15,1.15,0,0,1-1.1-1.2l.31-6.93a1.13,1.13,0,0,1,1.2-1.1,1.15,1.15,0,0,1,1.1,1.2l-.31,6.93A1.15,1.15,0,0,1,259.17,376.85Zm.62-13.85h-.06a1.16,1.16,0,0,1-1.1-1.2l.31-6.93a1.17,1.17,0,0,1,1.2-1.1,1.14,1.14,0,0,1,1.1,1.2l-.3,6.93A1.15,1.15,0,0,1,259.79,363Zm.61-13.85h0a1.17,1.17,0,0,1-1.11-1.2l.3-6.93a1.16,1.16,0,0,1,2.31.1l-.3,6.93A1.16,1.16,0,0,1,260.4,349.15Zm.59-13.86h-.05a1.15,1.15,0,0,1-1.1-1.2l.29-6.93a1.14,1.14,0,0,1,1.2-1.1,1.17,1.17,0,0,1,1.11,1.2l-.29,6.93A1.16,1.16,0,0,1,261,335.29Zm.58-13.85h-.05a1.15,1.15,0,0,1-1.1-1.2l.28-6.93a1.09,1.09,0,0,1,1.2-1.11,1.16,1.16,0,0,1,1.1,1.2l-.28,6.93A1.15,1.15,0,0,1,261.57,321.44Zm.56-13.86h-.05a1.15,1.15,0,0,1-1.11-1.2l.27-6.93a1.12,1.12,0,0,1,1.19-1.11,1.15,1.15,0,0,1,1.11,1.2l-.26,6.93A1.16,1.16,0,0,1,262.13,307.58Zm.51-13.86h0a1.17,1.17,0,0,1-1.11-1.2q.13-3.57.24-6.93a1.15,1.15,0,0,1,1.15-1.11h0a1.15,1.15,0,0,1,1.12,1.19q-.12,3.36-.24,6.93A1.16,1.16,0,0,1,262.64,293.72Zm.47-13.87h0a1.15,1.15,0,0,1-1.12-1.19c.08-2.43.14-4.74.2-6.93a1.12,1.12,0,0,1,1.18-1.13,1.17,1.17,0,0,1,1.13,1.18q-.09,3.3-.2,7A1.15,1.15,0,0,1,263.11,279.85Zm.35-15-1.15,0,1.16-.22-1.16,0c0-2.14.07-4.37.09-6.67a1.17,1.17,0,0,1,1.16-1.15h0a1.15,1.15,0,0,1,1.14,1.17c0,2.31,0,4.55-.09,6.69Zm.13-12.69h0a1.16,1.16,0,0,1-1.15-1.16v-1.32c0-1.83,0-3.7,0-5.6a1.14,1.14,0,0,1,1.14-1.16h0a1.14,1.14,0,0,1,1.15,1.15c0,1.9,0,3.77,0,5.61V251A1.17,1.17,0,0,1,263.59,252.12Zm-.06-13.87a1.16,1.16,0,0,1-1.16-1.14q0-3.41-.08-6.93a1.16,1.16,0,0,1,1.14-1.17h0a1.16,1.16,0,0,1,1.16,1.14q0,3.53.08,6.94a1.14,1.14,0,0,1-1.14,1.16Zm-.2-13.86a1.16,1.16,0,0,1-1.15-1.14c0-2.28-.09-4.6-.14-6.93a1.16,1.16,0,0,1,1.13-1.17h0a1.15,1.15,0,0,1,1.15,1.13q.07,3.5.14,6.93a1.17,1.17,0,0,1-1.14,1.18ZM263,210.52a1.15,1.15,0,0,1-1.15-1.13q-.09-3.44-.18-6.92a1.17,1.17,0,0,1,1.13-1.19h0a1.15,1.15,0,0,1,1.15,1.13l.18,6.93a1.15,1.15,0,0,1-1.13,1.18Zm-.36-13.86a1.16,1.16,0,0,1-1.16-1.12l-.2-6.93a1.15,1.15,0,0,1,1.12-1.19h0a1.15,1.15,0,0,1,1.16,1.12l.2,6.93a1.15,1.15,0,0,1-1.12,1.19Zm-.42-13.87a1.15,1.15,0,0,1-1.16-1.12l-.23-6.91a1.17,1.17,0,0,1,1.11-1.2h0a1.16,1.16,0,0,1,1.16,1.12l.23,6.92a1.15,1.15,0,0,1-1.12,1.19Zm-.48-13.85a1.15,1.15,0,0,1-1.15-1.11l-.25-6.93a1.14,1.14,0,0,1,1.11-1.19h0a1.15,1.15,0,0,1,1.15,1.11l.25,6.93a1.14,1.14,0,0,1-1.11,1.19Zm-.51-13.86a1.16,1.16,0,0,1-1.16-1.11l-.27-6.92a1.15,1.15,0,0,1,1.11-1.2,1.17,1.17,0,0,1,1.2,1.11l.27,6.93a1.15,1.15,0,0,1-1.11,1.19Zm-.56-13.85a1.15,1.15,0,0,1-1.15-1.11l-.29-6.93a1.15,1.15,0,0,1,1.1-1.2,1.13,1.13,0,0,1,1.2,1.11l.29,6.93a1.16,1.16,0,0,1-1.1,1.2Zm-.59-13.86a1.15,1.15,0,0,1-1.15-1.1l-.31-6.93a1.16,1.16,0,0,1,1.1-1.21,1.15,1.15,0,0,1,1.21,1.11l.3,6.92a1.15,1.15,0,0,1-1.1,1.21Zm-.62-13.86a1.14,1.14,0,0,1-1.15-1.1l-.33-6.93a1.16,1.16,0,0,1,1.1-1.21,1.14,1.14,0,0,1,1.21,1.1l.32,6.93a1.15,1.15,0,0,1-1.1,1.21Zm-.65-13.86a1.16,1.16,0,0,1-1.16-1.1l-.33-6.93a1.15,1.15,0,1,1,2.3-.12l.34,6.94a1.15,1.15,0,0,1-1.1,1.2Zm-.69-13.87a1.15,1.15,0,0,1-1.15-1.1c-.23-4.46-.36-7-.36-7a1.15,1.15,0,0,1,1.09-1.22A1.14,1.14,0,0,1,259,77.6s.14,2.5.36,7a1.15,1.15,0,0,1-1.09,1.21Z"/><path class="cls-2" d="M136.18,26.46c-52.74,0-105.7-9.14-106.23-9.23a1.15,1.15,0,0,1,.4-2.27c.53.09,53.3,9.2,105.83,9.2a1.15,1.15,0,1,1,0,2.3Z"/><path class="cls-2" d="M124.85,9.53a1,1,0,0,1-1-1V5.62a1,1,0,0,1,2,0V8.56A1,1,0,0,1,124.85,9.53Z"/><path class="cls-2" d="M132.17,84,132,84a11.5,11.5,0,0,1-5.49-2.55,1,1,0,0,1,1.29-1.47A9.62,9.62,0,0,0,132.35,82a1,1,0,0,1-.18,2Zm-7.32-7.23a1,1,0,0,1-1-1v-5.6a1,1,0,0,1,2,0v5.6A1,1,0,0,1,124.85,76.75Zm0-11.2a1,1,0,0,1-1-1V59a1,1,0,0,1,2,0v5.6A1,1,0,0,1,124.85,65.55Zm0-11.2a1,1,0,0,1-1-1v-5.6a1,1,0,0,1,2,0v5.6A1,1,0,0,1,124.85,54.35Zm0-11.21a1,1,0,0,1-1-1v-5.6a1,1,0,0,1,2,0v5.6A1,1,0,0,1,124.85,43.14Zm0-11.2a1,1,0,0,1-1-1v-5.6a1,1,0,0,1,2,0V31A1,1,0,0,1,124.85,31.94Zm0-11.2a1,1,0,0,1-1-1v-5.6a1,1,0,0,1,2,0v5.6A1,1,0,0,1,124.85,20.74Z"/><path class="cls-2" d="M140.72,84.18h-2.94a1,1,0,1,1,0-2h2.94a1,1,0,1,1,0,2Z"/><path class="cls-2" d="M5.75,96.09a.91.91,0,0,1-.7-.19L5.76,95,5.6,93.85s2.5-.38,6.36-1.34a1.15,1.15,0,1,1,.56,2.24A37.11,37.11,0,0,1,5.75,96.09Zm13.16-3.2a1.16,1.16,0,0,1-.35-2.26c2.21-.71,4.38-1.49,6.44-2.32a1.15,1.15,0,1,1,.86,2.14c-2.11.85-4.33,1.65-6.6,2.38A1,1,0,0,1,18.91,92.89Zm12.83-5.22a1.15,1.15,0,0,1-.52-2.18,64.55,64.55,0,0,0,5.89-3.4,1.15,1.15,0,0,1,1.6.34A1.14,1.14,0,0,1,38.37,84a64.45,64.45,0,0,1-6.11,3.53A1.17,1.17,0,0,1,31.74,87.67Zm11.54-7.62a1.1,1.1,0,0,1-.87-.4A1.14,1.14,0,0,1,42.52,78a39,39,0,0,0,4.66-4.83A1.15,1.15,0,1,1,49,74.64,39.61,39.61,0,0,1,44,79.76,1.07,1.07,0,0,1,43.28,80.05Zm8.61-10.74a1.18,1.18,0,0,1-.57-.15,1.15,1.15,0,0,1-.43-1.58c1.1-1.92,2.15-4,3.12-6.07a1.15,1.15,0,0,1,2.09,1c-1,2.17-2.08,4.27-3.21,6.25A1.15,1.15,0,0,1,51.89,69.31Zm5.82-12.56a1.12,1.12,0,0,1-.4-.07,1.15,1.15,0,0,1-.68-1.48c.78-2.09,1.51-4.28,2.17-6.5a1.15,1.15,0,1,1,2.21.66c-.68,2.27-1.42,4.51-2.22,6.64A1.15,1.15,0,0,1,57.71,56.75Zm4-13.26-.27,0a1.16,1.16,0,0,1-.86-1.39c.53-2.21,1-4.48,1.4-6.73a1.16,1.16,0,0,1,1.34-.93,1.14,1.14,0,0,1,.93,1.34c-.41,2.29-.89,4.6-1.42,6.85A1.16,1.16,0,0,1,61.7,43.49Zm2.46-13.64H64a1.15,1.15,0,0,1-1-1.29c.52-4.16.63-6.79.64-6.82a1.13,1.13,0,0,1,1.2-1.1,1.15,1.15,0,0,1,1.1,1.2c0,.11-.11,2.74-.65,7A1.15,1.15,0,0,1,64.16,29.85Z"/><path class="cls-2" d="M8.87,83.69a1.16,1.16,0,0,1-.26-2.28c.29-.07,29.65-7.22,38.15-24.86,6.61-13.71,6.69-35.72,6.69-35.94a1.15,1.15,0,0,1,1.15-1.16h0a1.16,1.16,0,0,1,1.16,1.16c0,.92-.08,22.76-6.92,36.94-9,18.64-38.45,25.81-39.7,26.11A1.24,1.24,0,0,1,8.87,83.69Z"/><path class="cls-2" d="M140.19,174.52h0a1.17,1.17,0,0,1-1.15-1.16l.53-167.74a1.16,1.16,0,0,1,1.16-1.16h0a1.16,1.16,0,0,1,1.15,1.16l-.53,167.75A1.16,1.16,0,0,1,140.19,174.52Z"/><path class="cls-3" d="M128.25,14.73a4.54,4.54,0,1,1,9.07,0,4.54,4.54,0,1,1-9.07,0Z"/><path class="cls-2" d="M167.18,25.56A1.17,1.17,0,0,1,166,24.41l-.11-20.25A1.14,1.14,0,0,1,167.05,3a1.09,1.09,0,0,1,1.16,1.14l.12,20.26a1.16,1.16,0,0,1-1.15,1.16Z"/><path class="cls-2" d="M25.14,695.73A1.15,1.15,0,0,1,24,694.57v-7a1.16,1.16,0,0,1,2.31,0v7A1.16,1.16,0,0,1,25.14,695.73Zm0-13.9A1.14,1.14,0,0,1,24,680.68v-6.94a1.16,1.16,0,0,1,2.31,0v6.94A1.15,1.15,0,0,1,25.14,681.83Zm0-13.87A1.15,1.15,0,0,1,24,666.8v-6.94a1.16,1.16,0,0,1,2.31,0v6.94A1.16,1.16,0,0,1,25.14,668Zm0-13.88A1.14,1.14,0,0,1,24,652.93V646a1.16,1.16,0,0,1,2.31,0v6.94A1.15,1.15,0,0,1,25.14,654.08Zm0-13.87A1.14,1.14,0,0,1,24,639.06v-6.94a1.16,1.16,0,0,1,2.31,0v6.94A1.15,1.15,0,0,1,25.14,640.21Zm0-13.87A1.15,1.15,0,0,1,24,625.19v-6.94a1.16,1.16,0,0,1,2.31,0v6.94A1.16,1.16,0,0,1,25.14,626.34Zm0-13.87A1.15,1.15,0,0,1,24,611.31v-6.92a1.16,1.16,0,1,1,2.31,0v6.92A1.16,1.16,0,0,1,25.14,612.47Zm0-13.86A1.15,1.15,0,0,1,24,597.45v-6.93a1.16,1.16,0,1,1,2.31,0v6.93A1.16,1.16,0,0,1,25.14,598.61Zm0-13.87A1.15,1.15,0,0,1,24,583.58v-6.93a1.16,1.16,0,1,1,2.31,0v6.93A1.16,1.16,0,0,1,25.14,584.74Zm0-13.88A1.14,1.14,0,0,1,24,569.71v-3.66c0-1,0-2.11,0-3.26a1.17,1.17,0,0,1,1.15-1.17h0a1.16,1.16,0,0,1,1.15,1.15c0,1.16,0,2.25,0,3.28v3.66A1.15,1.15,0,0,1,25.14,570.86ZM25,557a1.17,1.17,0,0,1-1.16-1.14c0-2.16-.09-4.48-.15-6.93a1.14,1.14,0,0,1,1.12-1.18A1.11,1.11,0,0,1,26,548.86q.11,3.69.16,6.95A1.16,1.16,0,0,1,25.05,557Zm-.35-13.88A1.16,1.16,0,0,1,23.53,542q-.11-3.33-.22-6.93a1.16,1.16,0,0,1,1.12-1.19A1.19,1.19,0,0,1,25.62,535c.08,2.39.15,4.71.21,6.94a1.16,1.16,0,0,1-1.12,1.19Zm-.45-13.87a1.15,1.15,0,0,1-1.15-1.12l-.25-6.93A1.15,1.15,0,0,1,23.94,520a1.12,1.12,0,0,1,1.2,1.11l.25,6.93a1.17,1.17,0,0,1-1.12,1.2Zm-.51-13.87a1.16,1.16,0,0,1-1.15-1.11l-.27-6.93a1.15,1.15,0,0,1,1.11-1.19,1.12,1.12,0,0,1,1.2,1.1l.27,6.94a1.15,1.15,0,0,1-1.11,1.19Zm-.54-13.86a1.14,1.14,0,0,1-1.15-1.1l-.29-6.93a1.15,1.15,0,0,1,1.11-1.2,1.11,1.11,0,0,1,1.2,1.1l.28,6.93a1.15,1.15,0,0,1-1.1,1.2Zm-.57-13.85a1.15,1.15,0,0,1-1.15-1.11l-.3-6.92a1.17,1.17,0,0,1,1.11-1.21,1.13,1.13,0,0,1,1.2,1.11l.29,6.93a1.15,1.15,0,0,1-1.1,1.2ZM22,473.81a1.15,1.15,0,0,1-1.15-1.11l-.3-6.92a1.15,1.15,0,0,1,1.1-1.21,1.11,1.11,0,0,1,1.2,1.1l.3,6.93a1.14,1.14,0,0,1-1.1,1.2ZM21.42,460a1.16,1.16,0,0,1-1.16-1.1l-.3-6.92a1.15,1.15,0,0,1,1.1-1.21,1.12,1.12,0,0,1,1.2,1.1l.31,6.93a1.15,1.15,0,0,1-1.1,1.2Zm-.61-13.85a1.16,1.16,0,0,1-1.16-1.1l-.31-6.93a1.16,1.16,0,0,1,1.1-1.2,1.13,1.13,0,0,1,1.21,1.1L22,444.9a1.16,1.16,0,0,1-1.1,1.2Zm-.63-13.85a1.15,1.15,0,0,1-1.15-1.1l-.31-6.93a1.16,1.16,0,0,1,2.31-.1l.31,6.93a1.16,1.16,0,0,1-1.1,1.2Zm-.62-13.85a1.15,1.15,0,0,1-1.15-1.1l-.31-6.94a1.15,1.15,0,0,1,1.1-1.21,1.13,1.13,0,0,1,1.2,1.1l.31,6.95a1.15,1.15,0,0,1-1.1,1.2Zm-.63-13.87a1.16,1.16,0,0,1-1.15-1.11l-.31-6.91a1.15,1.15,0,0,1,1.1-1.21,1.12,1.12,0,0,1,1.21,1.1l.31,6.92a1.16,1.16,0,0,1-1.1,1.21Zm-.62-13.83a1.15,1.15,0,0,1-1.15-1.1l-.31-6.92a1.15,1.15,0,0,1,1.1-1.21,1.12,1.12,0,0,1,1.2,1.1l.31,6.93a1.15,1.15,0,0,1-1.1,1.2Zm-.62-13.85a1.15,1.15,0,0,1-1.15-1.1l-.31-6.93a1.15,1.15,0,0,1,1.1-1.2,1.13,1.13,0,0,1,1.2,1.1l.31,6.93a1.15,1.15,0,0,1-1.1,1.2ZM17.07,363a1.15,1.15,0,0,1-1.15-1.1L15.61,355a1.16,1.16,0,0,1,1.11-1.2,1.14,1.14,0,0,1,1.2,1.1l.31,6.93a1.17,1.17,0,0,1-1.11,1.2Zm-.61-13.85a1.16,1.16,0,0,1-1.15-1.1l-.3-6.93a1.16,1.16,0,0,1,2.31-.1l.3,6.93a1.16,1.16,0,0,1-1.11,1.2Zm-.59-13.86a1.14,1.14,0,0,1-1.15-1.1l-.3-6.93a1.17,1.17,0,0,1,1.11-1.2,1.15,1.15,0,0,1,1.2,1.1l.29,6.93a1.15,1.15,0,0,1-1.1,1.2Zm-.58-13.85a1.15,1.15,0,0,1-1.15-1.11l-.29-6.93A1.17,1.17,0,0,1,15,312.2a1.15,1.15,0,0,1,1.2,1.11l.28,6.93a1.15,1.15,0,0,1-1.1,1.2Zm-.56-13.86a1.16,1.16,0,0,1-1.15-1.11l-.26-6.93a1.15,1.15,0,0,1,1.11-1.2,1.13,1.13,0,0,1,1.19,1.11l.27,6.93a1.15,1.15,0,0,1-1.11,1.2Zm-.52-13.86a1.16,1.16,0,0,1-1.15-1.12q-.12-3.57-.24-6.93a1.15,1.15,0,0,1,1.12-1.19,1.12,1.12,0,0,1,1.19,1.11q.1,3.36.24,6.93a1.17,1.17,0,0,1-1.11,1.2Zm-.46-13.87a1.15,1.15,0,0,1-1.15-1.12c-.07-2.43-.14-4.75-.2-6.94a1.16,1.16,0,1,1,2.31-.06c.06,2.19.12,4.5.2,6.93a1.15,1.15,0,0,1-1.12,1.19Zm-.36-14a1.07,1.07,0,0,1-1.15-1v-.24q-.06-3.22-.09-6.69a1.15,1.15,0,0,1,1.14-1.17h0a1.16,1.16,0,0,1,1.16,1.15c0,2.3,0,4.53.09,6.67a1.25,1.25,0,0,1-1.13,1.29Zm-.12-13.73A1.16,1.16,0,0,1,12.11,251v-1.32c0-1.84,0-3.71,0-5.61a1.15,1.15,0,0,1,1.15-1.15h0A1.15,1.15,0,0,1,14.44,244c0,1.9,0,3.77,0,5.6V251a1.16,1.16,0,0,1-1.15,1.16Zm.06-13.87h0a1.15,1.15,0,0,1-1.14-1.16q0-3.42.08-6.94A1.21,1.21,0,0,1,13.43,229a1.15,1.15,0,0,1,1.14,1.17q0,3.52-.08,6.93A1.16,1.16,0,0,1,13.33,238.25Zm.2-13.86h0a1.17,1.17,0,0,1-1.14-1.18c.05-2.29.09-4.6.14-6.93a1.12,1.12,0,0,1,1.18-1.13,1.15,1.15,0,0,1,1.13,1.17c-.05,2.33-.1,4.65-.14,6.93A1.15,1.15,0,0,1,13.53,224.39Zm.29-13.87h0a1.14,1.14,0,0,1-1.12-1.18l.17-6.94a1.16,1.16,0,0,1,2.31.07L15,209.39A1.15,1.15,0,0,1,13.82,210.52Zm.36-13.86h0A1.15,1.15,0,0,1,13,195.47l.2-6.93a1.19,1.19,0,0,1,1.19-1.12,1.15,1.15,0,0,1,1.12,1.19l-.2,6.93A1.17,1.17,0,0,1,14.18,196.66Zm.43-13.87h0a1.15,1.15,0,0,1-1.12-1.19l.23-6.92a1.2,1.2,0,0,1,1.2-1.12,1.17,1.17,0,0,1,1.11,1.2l-.23,6.92A1.15,1.15,0,0,1,14.61,182.79Zm.47-13.85h0a1.14,1.14,0,0,1-1.11-1.19l.25-6.93a1.12,1.12,0,0,1,1.19-1.11,1.16,1.16,0,0,1,1.12,1.19l-.26,6.93A1.15,1.15,0,0,1,15.08,168.94Zm.52-13.85h0a1.15,1.15,0,0,1-1.11-1.19l.27-6.93a1.12,1.12,0,0,1,1.2-1.11,1.15,1.15,0,0,1,1.11,1.2L16.75,154A1.16,1.16,0,0,1,15.6,155.09Zm.55-13.86h0A1.15,1.15,0,0,1,15,140l.29-6.93a1.13,1.13,0,0,1,1.2-1.11,1.15,1.15,0,0,1,1.1,1.2l-.29,6.93A1.16,1.16,0,0,1,16.15,141.23Zm.59-13.86h0a1.15,1.15,0,0,1-1.1-1.2l.3-6.93a1.14,1.14,0,0,1,1.21-1.11,1.16,1.16,0,0,1,1.1,1.21l-.31,6.93A1.15,1.15,0,0,1,16.74,127.37Zm.62-13.86h-.05a1.15,1.15,0,0,1-1.1-1.21l.32-6.93a1.13,1.13,0,0,1,1.21-1.1,1.16,1.16,0,0,1,1.1,1.21l-.33,6.93A1.15,1.15,0,0,1,17.36,113.51ZM18,99.65H18a1.15,1.15,0,0,1-1.1-1.21l.34-6.93a1.12,1.12,0,0,1,1.21-1.09,1.14,1.14,0,0,1,1.09,1.2l-.33,6.94A1.16,1.16,0,0,1,18,99.65Zm.69-13.87h-.06a1.14,1.14,0,0,1-1.09-1.21c.22-4.47.36-7,.36-7a1.13,1.13,0,0,1,1.21-1.09,1.15,1.15,0,0,1,1.09,1.22s-.13,2.49-.36,7A1.15,1.15,0,0,1,18.7,85.78Z"/><path class="cls-2" d="M195.72,22.44a1.15,1.15,0,0,1-1.15-1.12l-.52-18.17A1.15,1.15,0,0,1,195.17,2h0a1.15,1.15,0,0,1,1.15,1.12l.52,18.16a1.16,1.16,0,0,1-1.12,1.19Z"/><path class="cls-4" d="M15.23,684.48s17.38,5.16,45.77,4.2,41.12-4.82,41.12-4.82,4.89-1.93,4.89,10.61-1,16.39-6.85,18.32S82.54,716.65,60,716.65s-40.28.29-45.18-4.53S12.29,690.27,15.23,684.48Z"/><path class="cls-4" d="M262,684.48s-16.48,5.16-44.87,4.2S176,683.86,176,683.86s-4.9-1.93-4.9,10.61,1,16.39,6.85,18.32,17.63,3.86,40.14,3.86,36.67-.1,41.56-4.92S265,690.27,262,684.48Z"/></g></g></svg>