<svg xmlns="http://www.w3.org/2000/svg" viewBox="0 0 87.38 151.48"><defs><style>.cls-1,.cls-3{fill:#bc446f;}.cls-2{fill:#ef5972;}.cls-3{opacity:0.63;}.cls-4{fill:#af3c54;}.cls-5{fill:#bc33c4;}.cls-6{fill:#68287f;}.cls-7{fill:#f6bcff;}.cls-7,.cls-9{opacity:0.29;}.cls-8{fill:#bc33ab;}.cls-9{fill:#f62aff;}</style></defs><g id="Layer_2" data-name="Layer 2"><g id="Layer_1-2" data-name="Layer 1"><path class="cls-1" d="M3.65,3.38,12.37,0S23.54,18.15,39.05,19.43,67.94,15,76.87.94l9,3.28s-10.51,5.89-18,23.92-4.67,38.24-4.67,38.24H25.66S29.44,21.32,3.65,3.38Z"/><path class="cls-2" d="M.06,4.77A37.79,37.79,0,0,1,7.68,23.36C8.56,31.73,3.16,41.84.8,49.73c0,0-2.34,3.16,6,23.24L3.4,137c23.75,19.76,59.44,16.73,80.48.64,0,0-9.88-42.71-5.74-67.25,0,0,5.62-8.25,6.88-16.7a51.1,51.1,0,0,1-4-12.34A65.2,65.2,0,0,1,81.3,23.5,81.26,81.26,0,0,1,87.38,4.77L76.87.94s3.07,10.81.81,21.93c-1.89,9.3-8.36,18.83-15.47,22.46-8.49,4.33-20,7.52-29.33,4.27C25.52,47,21.69,42.36,17,35.67a49.24,49.24,0,0,1-6.2-13.18C7.37,10.07,11.86.2,12.37,0Z"/><path class="cls-3" d="M52.55,80c-18.33,0-45.8-7-45.8-7L3.4,137a60.6,60.6,0,0,0,33.07,13.45,57.51,57.51,0,0,0-2.39-6.14C12.6,97,52.55,80,52.55,80Z"/><path class="cls-3" d="M77.05,29.19S65.64,48.94,68.14,50.61,77.05,29.19,77.05,29.19Z"/><path class="cls-3" d="M78.14,29.19s-5.92,21-1.59,21.5S78.14,29.19,78.14,29.19Z"/><path class="cls-4" d="M17.85,38c4.65,6.81,9.76,11.84,18.24,13.45,4.47.79,10,.77,17.23-1.5,10.12-3.27,14.49-6.75,18.59-12.89a37.1,37.1,0,0,0,4.74-10.34C74,33.33,69.23,40.28,63.05,44a53.88,53.88,0,0,1-10.28,4.17c-11.42,3.37-22.4,2.44-30.3-6.6a54.88,54.88,0,0,1-11.67-19,37.08,37.08,0,0,0,1.69,5.43A41.79,41.79,0,0,0,17.85,38Z"/><path class="cls-4" d="M4.38,136.59C6.22,102.8,4.59,133,6,105.05c1-20.77.81-15.48,1.49-32.22,0-.1-7.84-18.08-6.38-22.62,0-.08.08-.22.06-.2,3.69-11.16,6.1-16.53,6.51-22.9C6.85,34.38,3.11,41.48.21,50c-.47,1.4,0,4.41.26,5.88C1.52,61.42,4.06,68.1,6,73.09,5.25,84.63,5.21,86.16,4.15,105c-.18,3.32.64-12-1.72,32.51a59.68,59.68,0,0,0,19.5,10.79c20.57,6.88,45.64,2.5,62-10.58C78,141.86,26.78,155,4.38,136.59Z"/><path class="cls-5" d="M13,20.17c.55,1.79-.9,3.82-3.25,4.54s-4.68-.14-5.23-1.92S5.41,19,7.75,18.25,12.43,18.39,13,20.17Z"/><path class="cls-6" d="M6.88,24.8c2.67.44,5.23-1.15,5.84-3.06s-1.21-4-4.55-3.58c3.06-.95,5.85,1,5,3.73a4.63,4.63,0,0,1-2.64,2.7A5.15,5.15,0,0,1,6.88,24.8Z"/><path class="cls-7" d="M7,19.26a1.92,1.92,0,0,0-1.5,2.22c.25,1.88,1.91,2.59,2.38.75S9.18,18.89,7,19.26Z"/><path class="cls-8" d="M83.09,24.67c-.3,1.84-2.5,3-4.92,2.62s-4.14-2.2-3.84-4,2.5-3,4.92-2.62S83.39,22.83,83.09,24.67Z"/><path class="cls-6" d="M79.66,20.73c3.21,1.07,4,3.76,2.5,5.23s-4.38,1.73-6.59.15A5.13,5.13,0,0,0,79,27.55a4.58,4.58,0,0,0,3.55-1.25C84.45,24.25,82.83,21.23,79.66,20.73Z"/><path class="cls-9" d="M78.15,21.21a1.91,1.91,0,0,0-2.33,1.33c-.6,1.79.57,3.17,1.8,1.72S80.25,21.83,78.15,21.21Z"/><path class="cls-3" d="M9.18,27.11S1.63,48,5.5,49.48,9.18,27.11,9.18,27.11Z"/><path class="cls-3" d="M10.93,31.92v.31c.28.28.69,17.5,3.75,18.56S10.93,31.92,10.93,31.92Z"/></g></g></svg>