<?xml version="1.0" encoding="UTF-8"?><svg xmlns="http://www.w3.org/2000/svg" xmlns:xlink="http://www.w3.org/1999/xlink" contentScriptType="text/ecmascript" width="375" zoomAndPan="magnify" contentStyleType="text/css" viewBox="0 0 375 374.999991" height="374.999991" preserveAspectRatio="xMidYMid meet" version="1.0"><defs><clipPath id="clip-0"><path d="M 37.5 0.261719 L 341.25 0.261719 L 341.25 374.71875 L 37.5 374.71875 Z M 37.5 0.261719 " clip-rule="nonzero"/></clipPath></defs><rect x="-37.5" width="450" fill="rgb(100%, 100%, 100%)" y="-37.499999" height="449.999989" fill-opacity="1"/><rect x="-37.5" width="450" fill="rgb(100%, 100%, 100%)" y="-37.499999" height="449.999989" fill-opacity="1"/><rect x="-37.5" width="450" fill="rgb(100%, 100%, 100%)" y="-37.499999" height="449.999989" fill-opacity="1"/><g clip-path="url(#clip-0)"><path fill="rgb(0%, 0%, 0%)" d="M 261.417969 366.207031 C 266.550781 367.65625 271.949219 367.597656 277.152344 368.65625 C 277.433594 365.808594 279.320312 361.644531 276.335938 360.890625 C 275.769531 363.03125 276.664062 367.230469 273.472656 367.839844 C 274.292969 365.386719 274.703125 362.867188 274.703125 360.277344 C 270.910156 360.707031 267.257812 359.105469 263.460938 359.257812 C 263.058594 361.980469 262.203125 363.921875 261.417969 366.207031 Z M 246.703125 365.386719 C 255.542969 364.851562 259.4375 368.652344 261.828125 358.644531 C 257.746094 358 253.847656 356.609375 249.765625 355.988281 C 248.675781 359.046875 247.511719 362.183594 246.703125 365.386719 Z M 303.3125 353.535156 C 305.070312 355.625 313.039062 368.542969 314.347656 363.957031 C 310.902344 361.351562 308.871094 351.3125 303.3125 353.535156 Z M 96.078125 358.851562 C 94.300781 356.234375 93.394531 353.578125 90.148438 352.511719 C 91.574219 354.542969 92.871094 356.65625 94.035156 358.851562 C 95.117188 358.886719 95.394531 358.933594 96.078125 358.851562 Z M 234.03125 352.921875 C 233.878906 353.898438 231.28125 365.84375 230.558594 365.589844 C 241.828125 367.367188 244.390625 365.917969 247.722656 355.578125 C 246.039062 354.957031 234.03125 352.300781 234.03125 352.921875 C 233.429688 356.808594 234.03125 352.714844 234.03125 352.921875 Z M 67.875 350.46875 C 65.480469 351.039062 64.996094 355.460938 65.214844 358.234375 C 66.78125 356.109375 67.394531 353.199219 67.875 350.46875 Z M 322.320312 363.957031 C 318.859375 362.203125 312.691406 348.742188 308.832031 353.125 C 315.308594 364.949219 318.5625 366.414062 331.195312 361.5 C 340.023438 358.066406 328.84375 353.765625 332.660156 351.917969 C 334.464844 350.6875 333.949219 349.046875 331.109375 346.992188 C 328.949219 348.210938 326.703125 349.234375 324.363281 350.058594 C 324.792969 351.121094 329.917969 362.3125 328.65625 362.117188 C 326.726562 359.78125 325.230469 357.1875 324.167969 354.347656 C 321.171875 347.714844 320.582031 351.734375 314.761719 351.898438 C 316.917969 354.890625 318.179688 358.597656 320.890625 361.097656 C 321.621094 361.773438 322.472656 362.691406 322.320312 363.957031 Z M 87.492188 348.835938 C 93.988281 352.59375 96.945312 358.699219 104.867188 357.824219 C 101.710938 353.667969 99.375 349.011719 97.101562 344.335938 C 96.1875 344.179688 88.878906 346.703125 87.492188 348.835938 Z M 194.585938 360.277344 C 201.734375 362.28125 209.996094 364.082031 217.398438 364.925781 C 224.203125 365.699219 227.347656 368.160156 229.945312 361.179688 C 233.679688 351.125 231.589844 351.933594 222.789062 348.628906 C 221.808594 352.160156 220.925781 359.03125 218.496094 361.914062 C 217.625 355.53125 224.148438 349.019531 215.988281 346.664062 C 203.105469 342.9375 213.886719 357.589844 206.644531 361.097656 C 206.132812 357.027344 206.921875 352.703125 207.910156 348.773438 C 209.632812 341.941406 203.632812 343.316406 197.855469 341.476562 C 197.957031 342.332031 195.21875 354.640625 194.585938 360.277344 Z M 98.734375 343.519531 C 103.554688 351.847656 103.386719 358.398438 114.265625 356.804688 C 110.894531 352.097656 110.296875 346.074219 107.523438 341.066406 C 104.300781 341.519531 101.648438 342.644531 98.734375 343.519531 Z M 176.335938 355.699219 C 181.917969 357.136719 187.4375 358.824219 193.15625 359.667969 C 193.546875 353.128906 195.71875 347.191406 196.425781 341.066406 C 192.9375 340.0625 189.394531 339.3125 185.796875 338.820312 C 185.46875 340.808594 184.949219 354.269531 181.917969 353.945312 C 183.039062 349.308594 183.910156 343.683594 183.753906 338.820312 C 180.179688 339.078125 176.464844 337.945312 172.921875 338.613281 C 173.046875 343.792969 167 353.289062 176.335938 355.699219 Z M 161.042969 349.183594 C 161.179688 355.882812 163.800781 353.804688 169.652344 354.554688 C 169.296875 348.96875 170.953125 343.5625 171.085938 338.003906 C 167.609375 337.78125 164.308594 338.394531 160.863281 338.613281 C 160.738281 343.714844 160.96875 345.660156 161.042969 349.183594 Z M 127.347656 355.371094 C 123.984375 355.226562 121.726562 340.929688 121.011719 337.796875 C 110.457031 337.902344 108.660156 339.589844 112.351562 348.71875 C 113.515625 351.414062 114.496094 354.179688 115.289062 357.007812 C 120.984375 356.644531 126.660156 356.023438 132.332031 355.390625 C 141.402344 354.371094 150.496094 353.367188 159.636719 353.535156 C 159.234375 350.183594 159.054688 346.824219 159.101562 343.449219 C 158.832031 335.730469 154.910156 339.234375 148.601562 338.613281 C 148.765625 339.996094 150.996094 351.425781 149.214844 352.308594 C 147.578125 351.65625 147.199219 343.527344 147.082031 342.800781 C 146.003906 336.269531 142.515625 335.828125 135.519531 335.550781 C 136.800781 341.414062 137.089844 347.621094 138.996094 353.332031 C 135.996094 353.167969 135.761719 347.5 135.3125 344.929688 C 133.484375 334.527344 133.0625 335.777344 123.054688 336.980469 C 123.679688 344.214844 126.171875 349.152344 127.347656 355.371094 Z M 52.542969 346.175781 C 51.023438 351.644531 51.179688 357.445312 49.683594 362.933594 C 44.980469 355.640625 55.953125 344.683594 48.050781 338.003906 C 48.132812 343.804688 44.761719 350.871094 44.777344 357.214844 C 40.230469 357.964844 48.808594 334.804688 44.574219 334.734375 C 44.039062 344.953125 37.09375 355.410156 47.023438 362.257812 C 51.273438 365.1875 67.035156 375.480469 63.988281 362.117188 C 63.816406 363.855469 63.132812 365.355469 61.949219 366.617188 C 56.875 358.464844 70.476562 352.535156 58.675781 346.382812 C 57.089844 352.96875 57.144531 359.703125 56.632812 366.410156 C 49.960938 366.351562 62.066406 343.140625 53.363281 342.90625 C 53.089844 343.996094 52.820312 345.085938 52.542969 346.175781 C 51.398438 350.300781 52.832031 345.148438 52.542969 346.175781 Z M 284.917969 331.667969 C 280.925781 339.320312 279.5 348.019531 276.949219 356.191406 C 277.308594 356.617188 283.835938 331.339844 284.917969 331.667969 Z M 289.210938 325.941406 C 289.753906 324.984375 290.257812 323.988281 290.234375 322.46875 C 289.347656 322.945312 289.332031 325.378906 289.210938 325.941406 Z M 291.054688 318.996094 C 291.742188 319.128906 291.882812 317.664062 291.460938 317.359375 C 291.246094 317.828125 291.332031 318.59375 291.054688 318.996094 Z M 257.941406 307.34375 C 260.621094 318.617188 271.015625 344.023438 262.4375 354.554688 C 264.679688 354.796875 266.929688 354.933594 269.183594 354.964844 C 269.023438 348.570312 268.117188 341.117188 270.640625 335.046875 C 271.839844 332.171875 275.25 324.300781 275.109375 321.449219 C 274.824219 315.660156 257.941406 308.515625 257.941406 307.34375 C 260.980469 320.121094 257.941406 307.140625 257.941406 307.34375 Z M 289.621094 303.460938 C 278.722656 317.765625 270.175781 337.03125 271.839844 355.371094 C 278.09375 356.617188 280.609375 333.902344 285.738281 328.191406 C 286.707031 328.574219 294.011719 302.417969 293.503906 298.351562 C 292.007812 299.90625 290.714844 301.609375 289.621094 303.460938 C 288.863281 304.457031 290.992188 301.664062 289.621094 303.460938 Z M 85.65625 343.929688 C 93.742188 340.757812 94.625 339.695312 98.539062 332.558594 C 100.277344 329.394531 105.882812 323.152344 105.375 319.375 C 104.769531 314.8125 91.597656 293.488281 87.492188 294.058594 C 86.609375 300.726562 85.304688 307.527344 84.632812 314.292969 C 84.582031 314.773438 85.246094 334.503906 85.65625 343.929688 Z M 256.921875 303.257812 C 260.703125 305.179688 264.726562 306.75 268.199219 309.230469 C 272.136719 312.042969 275.347656 316.230469 276.335938 320.222656 C 279.285156 319.089844 279.929688 313.71875 281.273438 311.566406 C 284.898438 305.75 279.121094 306.910156 275.988281 303.0625 C 270.03125 295.75 263.964844 291.054688 253.855469 291.609375 C 254.796875 294.1875 257.054688 301.835938 256.921875 303.257812 Z M 197.855469 312.042969 C 202.660156 309.753906 198.632812 297.804688 197.351562 294.8125 C 194.023438 287.046875 191.769531 274.609375 182.734375 272.191406 C 182.769531 279.554688 183.21875 286.90625 183.34375 294.265625 C 184.253906 294.519531 195.257812 305.851562 197.855469 312.042969 Z M 109.230469 301.667969 C 109.871094 302.820312 114.480469 308.652344 112.632812 310.617188 C 107 308.796875 95.042969 283 88.105469 278.53125 C 87.898438 285.839844 86.878906 288.488281 91.535156 293.707031 C 95.304688 297.933594 106.789062 317.71875 111.921875 312.050781 C 113.398438 310.417969 119.0625 304.023438 121.214844 304.277344 C 120.789062 304.183594 101.550781 330.460938 101.1875 337.183594 C 107.71875 335.617188 111.449219 336.015625 113.886719 329.570312 C 115.953125 324.09375 119.132812 319.070312 123.464844 315.109375 C 125.714844 315.585938 112.355469 330.738281 114.878906 334.324219 C 120.589844 329.46875 126.414062 336.4375 125.882812 326.222656 C 125.53125 319.480469 124.035156 312.882812 122.6875 306.289062 C 119.871094 292.484375 124.101562 280.03125 122.234375 266.675781 C 116.609375 265.386719 109.386719 282.863281 106.910156 286.292969 C 106.585938 288.238281 105.042969 294.132812 109.230469 301.667969 Z M 286.351562 304.074219 C 288.347656 301.234375 293.816406 296.535156 292.847656 293.328125 C 290 283.914062 286.273438 274.75 283.082031 265.449219 C 278.847656 265.449219 272.792969 289.835938 272.046875 293.652344 C 274.105469 295.339844 282.359375 309.761719 286.351562 304.074219 Z M 211.550781 260.339844 C 206.023438 263.210938 202.351562 269.195312 200.515625 275.054688 C 197.710938 283.992188 199.246094 288.117188 201.941406 296.921875 C 209.15625 290.390625 211.53125 291.949219 211.613281 281.160156 C 211.625 279.011719 211.734375 260.304688 211.550781 260.339844 C 208.808594 261.765625 211.878906 260.28125 211.550781 260.339844 Z M 253.652344 268.921875 C 254.136719 276.035156 252.761719 283.285156 254.0625 290.382812 C 255.644531 287.90625 259.414062 291.742188 261.621094 290.585938 C 263.652344 286.210938 265.164062 281.167969 264.484375 276.28125 C 263.621094 270.113281 257.074219 262.027344 252.21875 258.703125 C 252.84375 262.089844 253.324219 265.496094 253.652344 268.921875 C 253.808594 271.273438 253.410156 265.378906 253.652344 268.921875 Z M 270.613281 264.628906 C 267.171875 274.6875 268.265625 280.4375 263.664062 290.382812 C 266.140625 290.753906 268.453125 291.574219 270.613281 292.835938 C 272.054688 284.46875 274.953125 276.828125 278.789062 269.332031 C 279.378906 268.179688 283.691406 251.914062 278.789062 252.980469 C 276.503906 257.199219 272.207031 259.972656 270.613281 264.628906 C 269.460938 267.992188 272.222656 259.933594 270.613281 264.628906 Z M 211.957031 243.992188 C 206.054688 247.183594 200.070312 252.996094 197.039062 259.113281 C 195.238281 262.75 193.53125 277.867188 196.628906 280.777344 C 198.039062 273.53125 201.46875 264.902344 207.375 260.371094 C 212.003906 256.816406 211.710938 260.78125 212.316406 253.511719 C 212.367188 252.890625 213.675781 243.6875 211.957031 243.992188 C 210.089844 245 212.289062 243.929688 211.957031 243.992188 Z M 266.527344 272.398438 C 266.265625 269.484375 270.761719 265.011719 267.605469 262.652344 C 265.335938 260.957031 264.167969 258.699219 263.410156 256.21875 C 262.035156 251.734375 254.390625 240.214844 249.359375 239.695312 C 249.3125 243.957031 250.285156 248.15625 250.789062 252.371094 C 251.511719 253.351562 262.167969 264.761719 266.527344 272.398438 Z M 180.890625 251.960938 C 180.964844 256.128906 181.203125 260.328125 181.746094 264.53125 C 182.679688 271.730469 187.8125 270.441406 192.75 274.847656 C 194.601562 268.621094 195.867188 259.097656 192.804688 253.867188 C 191 250.777344 185.832031 236.382812 180.484375 238.878906 C 180.195312 243.269531 180.816406 247.578125 180.890625 251.960938 C 180.914062 253.09375 180.8125 247.339844 180.890625 251.960938 Z M 120.507812 264.4375 C 125.140625 263.097656 125.011719 256.265625 125.507812 250.527344 C 117.707031 252.40625 111.507812 257.558594 107.621094 264.320312 C 106.671875 265.96875 98.476562 283.859375 97.074219 281.472656 C 94.421875 276.957031 105.226562 264.199219 107.308594 261.148438 C 110.519531 256.433594 96.738281 238.21875 91.378906 236.835938 C 88.589844 247.664062 88.078125 258.949219 88.199219 270.082031 C 88.277344 277.351562 89.871094 276.382812 95.054688 280.570312 C 97.484375 282.535156 100.679688 287.503906 103.230469 288.746094 C 105.988281 283.78125 109.164062 279.0625 111.8125 274.03125 C 112.863281 270.097656 116.8125 265.507812 120.507812 264.4375 Z M 270.207031 261.769531 C 272.371094 257.671875 275.898438 254.644531 278.585938 250.9375 C 277.3125 243.726562 275.765625 236.554688 274.90625 229.273438 C 274.070312 228.773438 262.496094 252.589844 270.207031 261.769531 Z M 116.511719 252.777344 C 123.539062 243.84375 100.585938 228.746094 95.257812 227.023438 C 90.113281 235.988281 94.929688 232.523438 98.121094 239.085938 C 103.648438 243.804688 106.164062 251.1875 109.363281 257.480469 C 111.269531 255.320312 114.738281 255.035156 116.511719 252.777344 C 117.878906 251.042969 115.371094 254.230469 116.511719 252.777344 Z M 118.96875 251.140625 C 126.328125 248.355469 126.148438 247.957031 125.949219 239.902344 C 125.796875 233.628906 125.546875 227.359375 126.121094 221.097656 C 120.175781 222.277344 117.429688 227.9375 114.878906 232.746094 C 115.039062 234.269531 117.101562 244.945312 118.96875 251.140625 Z M 197.039062 255.433594 C 205.328125 249.960938 200.164062 236.671875 196.640625 229.488281 C 194.367188 224.855469 184.164062 218.878906 180.6875 219.667969 C 180.070312 224.902344 181.023438 230.171875 180.484375 235.402344 C 185.515625 234.199219 195.015625 249.449219 197.039062 255.433594 Z M 257.328125 242.558594 C 258.195312 233.457031 249.320312 215.613281 248.339844 215.785156 C 247.824219 223.027344 248.796875 230.21875 248.949219 237.449219 C 253.609375 237.285156 253.984375 240.972656 257.328125 242.558594 Z M 273.882812 213.738281 C 269.265625 213.542969 264.601562 226.433594 263.386719 230.03125 C 259.816406 240.566406 258.300781 242.421875 263.664062 250.9375 C 265.453125 241.929688 268.289062 232.414062 274.496094 225.390625 C 274.023438 221.554688 273.9375 217.632812 273.882812 213.738281 Z M 202.3125 222.722656 C 196.878906 228.066406 204.464844 238.9375 203.988281 245.417969 C 212.460938 240.460938 212.816406 242.355469 213.539062 231.699219 C 213.789062 228.019531 217.066406 216.160156 215.023438 213.128906 C 214.226562 215.226562 204 221.058594 202.3125 222.722656 Z M 107.320312 229.476562 C 109.359375 230.65625 111.132812 232.15625 112.632812 233.976562 C 114.335938 229.152344 116.515625 224.167969 120.867188 221.140625 C 126.871094 216.960938 127.214844 216.53125 125.917969 207.816406 C 125.523438 207.785156 121.183594 209.535156 121.214844 209.65625 C 119.378906 209.519531 110.734375 226.925781 107.320312 229.476562 Z M 106.292969 228.867188 C 108.355469 223.1875 110.386719 217.121094 114.46875 212.515625 C 113.359375 206.832031 109.390625 200.296875 105.480469 196.167969 C 101.875 205.503906 99.757812 215.328125 96.488281 224.777344 C 99.515625 226.382812 103.171875 227.152344 106.292969 228.867188 Z M 193.359375 220.484375 C 192.921875 218.234375 193.804688 205.976562 193.378906 206.144531 C 194.90625 205.546875 187.195312 194.714844 186.617188 193.304688 C 183.605469 201.257812 179.90625 209.070312 181.097656 217.828125 C 182.902344 217.171875 189.804688 221.769531 193.359375 220.484375 Z M 251.402344 186.96875 C 251.972656 192.703125 249.558594 200.832031 248.851562 206.6875 C 247.835938 215.117188 255.222656 223.9375 259.984375 230.296875 C 261.292969 227.144531 262.660156 224.015625 264.097656 220.917969 C 267.5 214.292969 265.332031 216.6875 261.851562 210.816406 C 260.71875 208.914062 252.707031 191.355469 251.402344 186.96875 Z M 115.492188 210.878906 C 123.40625 205.234375 122.582031 203.183594 119.058594 193.949219 C 117.808594 190.664062 113.203125 181.804688 108.746094 182.0625 C 108.496094 186.335938 107.1875 190.289062 105.886719 194.328125 C 110.242188 198.78125 113.429688 204.761719 115.492188 210.878906 Z M 98.121094 171.84375 C 90.292969 184.03125 87.78125 196.292969 81.898438 209.441406 C 74.691406 225.527344 67.15625 240.027344 62.867188 257.441406 C 58.410156 275.546875 57.953125 294.324219 53.527344 312.464844 C 52.261719 317.640625 41.59375 326.722656 48.328125 333.171875 C 51.222656 335.949219 54.078125 338.792969 57.367188 341.121094 C 65.546875 346.914062 69.054688 347.605469 72.847656 338.332031 C 74.296875 334.792969 75.5 331.226562 77.898438 328.195312 C 80.667969 324.699219 78.792969 320.183594 79.40625 316.039062 C 82.117188 297.679688 83.476562 280.128906 83.707031 261.492188 C 83.953125 241.453125 90.699219 225.191406 97.304688 206.589844 C 100.183594 198.480469 102.816406 190.039062 104.816406 181.664062 C 106.96875 172.628906 106.644531 170.3125 102.617188 163.261719 C 101.195312 166.160156 99.695312 169.023438 98.121094 171.84375 C 95.925781 175.261719 99.929688 169.03125 98.121094 171.84375 Z M 107.523438 153.042969 C 106.039062 153.472656 103.277344 161.300781 103.023438 162.851562 C 113.695312 160.835938 108.699219 174.542969 109.773438 179.816406 C 112.261719 175.070312 112.0625 169.269531 112.019531 164.078125 C 111.667969 161.027344 109.671875 153.476562 107.523438 153.042969 Z M 111.609375 180.429688 C 116.886719 183.144531 126.257812 206.148438 126.121094 206.179688 C 126.078125 201.777344 127.347656 197.808594 128.777344 193.714844 C 128.527344 187.527344 126.148438 181.792969 123.875 176.136719 C 123.371094 177.605469 121.203125 186.117188 119.171875 186.152344 C 120.429688 177.839844 124.714844 171.316406 123.832031 162.824219 C 122.738281 152.246094 120.46875 141.796875 117.539062 131.582031 C 113.800781 137.457031 111.546875 144.054688 108.746094 150.386719 C 109.070312 151.773438 117.472656 167.90625 111.609375 180.429688 Z M 274.085938 131.789062 C 271.46875 138.476562 271.136719 141.070312 271.53125 147.882812 C 271.648438 149.902344 272.832031 164.5 269.796875 165.101562 C 269.898438 158.378906 270.394531 151.546875 269.386719 144.867188 C 262.527344 154.949219 254.378906 167.792969 252.394531 180.117188 C 250.695312 190.703125 261.664062 207.796875 267.753906 215.785156 C 271.445312 211.496094 273.773438 211.367188 273.578125 205.320312 C 273.4375 200.902344 273.203125 196.492188 273.066406 192.078125 C 269.832031 192.582031 267.792969 196.984375 265.824219 191.757812 C 265.179688 190.039062 262.027344 181 264.28125 179.816406 C 267.257812 183.113281 265.722656 188.765625 267.957031 192.484375 C 273.15625 190.457031 273.15625 192.449219 272.9375 185.867188 C 272.902344 184.738281 270.742188 172.632812 275.109375 174.910156 C 279.636719 183.070312 276.84375 197.253906 277.359375 206.179688 C 278.632812 228.335938 282.25 248.527344 289.621094 269.535156 C 295.851562 287.289062 303.292969 304.5 294.324219 323.082031 C 292.492188 325.570312 286.113281 337.179688 289.679688 339.859375 C 291.632812 341.328125 298.238281 351.035156 300.195312 349.671875 C 306.25 345.46875 317.90625 346.730469 324.976562 343.929688 C 330.09375 341.902344 329.980469 343.027344 328.648438 336.90625 C 327.199219 330.261719 326.621094 323.441406 324.816406 316.871094 C 318.875 295.21875 312.632812 273.605469 307.402344 251.753906 C 302.539062 231.457031 296.695312 211.480469 292.136719 191.136719 C 287.03125 168.367188 283.878906 144.746094 276.335938 122.589844 C 276.03125 125.765625 275.28125 128.832031 274.085938 131.789062 C 272.976562 134.625 275.203125 128.945312 274.085938 131.789062 Z M 132.457031 179.609375 C 136.585938 157.859375 127.988281 138.171875 127.140625 116.664062 C 118.207031 116.28125 118.34375 133.542969 121.011719 138.734375 C 128.785156 153.867188 120.210938 174.578125 130.617188 188.398438 C 131.304688 185.484375 131.921875 182.558594 132.457031 179.609375 C 133.054688 176.457031 131.902344 182.519531 132.457031 179.609375 Z M 201.738281 114.210938 C 192.90625 115.496094 184.390625 114.019531 175.578125 114.824219 C 178.070312 126.605469 181.929688 138.050781 184.167969 150.003906 C 185.566406 157.457031 186.753906 164.960938 187.375 172.519531 C 187.773438 177.347656 185.804688 187.679688 188.730469 191.460938 C 192.605469 196.472656 194.9375 212.382812 201.332031 201.277344 C 206.140625 192.921875 194.222656 180.339844 197.242188 171.230469 C 198.53125 170.96875 198.007812 171.355469 199.488281 171.027344 C 201.789062 174.792969 206.578125 198.015625 203.988281 201.683594 C 200.449219 206.695312 187.722656 219.601562 198.46875 224.777344 C 200.226562 218.605469 206.734375 217.808594 211.347656 214.765625 C 220.859375 208.46875 214.378906 193.117188 213.59375 184.105469 C 211.296875 157.785156 220.554688 132.597656 226.058594 107.875 C 224.125 108.457031 221.960938 108.035156 220.132812 108.898438 C 217.796875 109.996094 206.328125 113.542969 201.738281 114.210938 Z M 128.777344 125.449219 C 129.667969 144.09375 137.632812 160.183594 134.652344 179.582031 C 133.554688 186.722656 130.378906 193.109375 128.828125 200.117188 C 126.855469 209.007812 127.597656 219.324219 127.617188 228.402344 C 127.652344 246.730469 126.535156 265.46875 122.441406 283.433594 C 123.664062 299.171875 128.441406 315.570312 128.164062 331.257812 C 138.332031 330.21875 145.523438 335.105469 155.757812 334.117188 C 163.09375 333.410156 172.195312 332.390625 179.464844 333.914062 C 181.144531 323.023438 181.371094 311.980469 181.355469 300.984375 C 181.324219 282.480469 179.644531 264.277344 178.636719 245.824219 C 177.898438 232.289062 175.671875 213.449219 181.386719 200.695312 C 186.316406 189.699219 186.421875 183.558594 185.390625 171.640625 C 183.941406 154.890625 181.265625 135.519531 175.3125 119.785156 C 173.421875 114.773438 173.546875 113.734375 166.789062 112.574219 C 160.78125 111.546875 155.574219 108.550781 150.667969 104.871094 C 147.59375 102.566406 145.660156 104.675781 143.179688 106.621094 C 139.84375 109.246094 135.902344 110.714844 132.117188 112.570312 C 125.617188 115.753906 128.46875 118.960938 128.777344 125.449219 C 129.027344 130.664062 128.609375 121.933594 128.777344 125.449219 Z M 256.550781 101.5 C 250.890625 97.824219 251.816406 98.15625 246.359375 97.042969 C 237.300781 105.761719 227.1875 104.253906 223.859375 118.976562 C 220.636719 133.253906 217.671875 147.640625 216.414062 162.242188 C 215.238281 175.914062 217.425781 188.570312 218.089844 202.09375 C 219.292969 226.660156 213.644531 252.238281 213.652344 277.035156 C 213.65625 288.210938 214.238281 299.125 214.617188 310.207031 C 214.742188 313.988281 221.222656 340.1875 217.476562 341.882812 C 212.378906 340.371094 211.410156 299.070312 211.753906 293.242188 C 206.917969 294.871094 203.753906 298.425781 202.363281 303.285156 C 201.710938 305.5625 195.195312 322.023438 195.382812 321.457031 C 194.574219 323.90625 195.324219 335.808594 192.75 335.140625 C 190.613281 326.75 193.234375 321.445312 196.425781 313.886719 C 194.867188 307.707031 189.636719 299.792969 183.546875 297.539062 C 183.34375 309.785156 183.152344 322.191406 181.300781 334.324219 C 186.964844 334.226562 192.363281 335.882812 197.855469 336.980469 C 197.324219 331.4375 204.457031 311.246094 211.957031 312.25 C 207.382812 319.433594 201.953125 323.8125 200.015625 332.5 C 198.1875 340.683594 212.882812 341.363281 219.464844 343.203125 C 233.222656 347.046875 247.988281 349.371094 261.417969 354.148438 C 260.753906 342.847656 263.75 330.585938 258.554688 319.8125 C 258.300781 319.792969 252.976562 298.273438 252.246094 295.183594 C 249.21875 282.4375 252.390625 268.78125 249.359375 255.640625 C 246.59375 243.65625 245.199219 228.804688 246.378906 216.539062 C 248.050781 199.1875 247.699219 179.476562 256.921875 163.261719 C 259.484375 150.105469 287.574219 119.183594 271.429688 110.738281 C 267.796875 108.835938 261.308594 104.589844 256.550781 101.5 Z M 189.683594 110.53125 C 187.632812 105.511719 189.875 81.582031 186.207031 80.894531 C 184.539062 82.515625 184.851562 92.972656 184.777344 94.796875 C 184.507812 101.5 182.082031 111.050781 190.105469 111.171875 C 197.597656 111.285156 208.179688 112.71875 207.472656 104.152344 C 206.820312 96.234375 207.664062 87.597656 204.601562 80.078125 C 200.441406 82.882812 194.464844 83.421875 189.683594 82.328125 C 190.203125 85.535156 191.507812 108.960938 189.683594 110.53125 Z M 187.636719 77.21875 C 190.902344 80.546875 198.609375 79.910156 201.535156 76.402344 C 198.777344 74.332031 194.332031 72.296875 191.519531 74.355469 C 190.210938 75.316406 188.910156 76.234375 187.636719 77.21875 Z M 215.023438 106.648438 C 210.953125 104.800781 210.367188 84.109375 209.710938 79.875 C 208.800781 80.660156 207.773438 80.796875 206.644531 80.285156 C 208.707031 88.847656 208.671875 97.695312 208.894531 106.445312 C 213.574219 108.296875 216.625 107.15625 222.382812 104.3125 C 224.796875 103.082031 227.21875 101.863281 229.644531 100.660156 C 236.214844 97.507812 231.9375 94 229.78125 87.996094 C 227.875 82.695312 225.9375 77.40625 224.015625 72.109375 C 219.660156 73.0625 215.472656 74.75 211.347656 76.402344 C 211.554688 85.476562 215.789062 106.730469 215.023438 106.648438 Z M 183.546875 110.941406 C 183.066406 104.054688 183.25 97.128906 183.632812 90.242188 C 184.28125 78.625 181.976562 78.503906 172.921875 71.699219 C 171.265625 84.121094 169.769531 96.820312 171.695312 109.304688 C 175.203125 110.550781 179.570312 110.796875 183.546875 110.941406 Z M 235.871094 98.066406 C 236.503906 94.785156 228.691406 70.851562 229.535156 70.882812 C 233.554688 78.953125 235.066406 87.980469 237.300781 96.632812 C 240.445312 96.34375 242.210938 93.574219 245.476562 93.566406 C 244.6875 88.132812 238.746094 82.0625 237.023438 76.355469 C 234.667969 68.550781 233.359375 69.667969 225.855469 71.496094 C 226.820312 75.777344 231.609375 96.667969 235.871094 98.066406 Z M 170.265625 108.898438 C 168.910156 101.363281 173.84375 70.859375 168.222656 68.839844 C 166.960938 81.820312 165.035156 94.820312 166.585938 107.875 C 168.011719 107.917969 168.996094 108.710938 170.265625 108.898438 Z M 150.644531 100.925781 C 154.867188 103.886719 159.6875 105.65625 164.542969 107.261719 C 164.019531 98.980469 164.429688 90.644531 165.15625 82.390625 C 165.648438 76.824219 169.804688 60.410156 157.800781 67.40625 C 155.921875 70.792969 159.292969 90.402344 150.644531 100.925781 Z M 201.125 71.90625 C 208.925781 73.972656 209.25 72.039062 217.679688 70.0625 C 215.394531 66.085938 198.179688 54.988281 193.96875 57.296875 C 189.816406 59.570312 178.042969 64.808594 175.78125 68.636719 C 178.363281 70.914062 181.289062 74.097656 184.777344 74.96875 C 185.515625 73.554688 196.5625 70.695312 201.125 71.90625 Z M 223.199219 68.023438 C 235.558594 65.957031 240.730469 66.6875 245.058594 79.578125 C 247.210938 85.996094 251.5625 93.117188 256.921875 97.25 C 260.027344 99.640625 272.839844 105.96875 274.90625 108.695312 C 284.730469 121.628906 285.957031 146.640625 290.148438 159.117188 C 296.890625 179.203125 299.363281 201.6875 305.09375 222.304688 C 310.617188 242.203125 315.035156 262.3125 320.773438 282.125 C 323.386719 291.15625 326.433594 300.007812 328.96875 309.054688 C 331.171875 316.90625 336.125 330.53125 334.992188 338.613281 C 336.8125 342.621094 343.609375 356.988281 340.429688 360.425781 C 334.457031 366.882812 326.441406 369 317.558594 369.546875 C 310.976562 369.949219 300.664062 365.007812 300.65625 356.804688 C 297.480469 355.289062 288 346.664062 286.964844 343.113281 C 283.0625 350.410156 282.347656 360.34375 281.441406 368.445312 C 281.222656 370.394531 281.730469 372.15625 281.039062 374.382812 C 277.152344 375.605469 268.320312 373.222656 264.304688 372.152344 C 241.546875 366.097656 214.609375 375.144531 191.761719 365.453125 C 171.019531 356.652344 143.535156 360.523438 120.808594 361.914062 C 112.1875 362.441406 101.621094 365.890625 93.625 363.957031 C 89.90625 362.625 88.445312 356.820312 85.992188 353.878906 C 80.957031 347.839844 81.597656 341.894531 79.929688 334.324219 C 74.484375 346.539062 70.742188 358.695312 66.898438 371.015625 C 64.414062 378.980469 43.546875 365.371094 40.273438 361.722656 C 34.851562 355.679688 38.402344 332.742188 42.238281 325.605469 C 48.832031 313.335938 51.605469 298.222656 53.15625 284.457031 C 56.210938 257.429688 64.921875 232.75 77.273438 208.835938 C 80.425781 202.734375 82.527344 195.9375 84.375 189.351562 C 86.875 180.433594 90.386719 175.515625 95.273438 167.75 C 102.109375 156.890625 106.613281 144.117188 112.222656 132.808594 C 115.816406 125.5625 117.101562 118.050781 123.644531 113.027344 C 132.203125 106.449219 144.710938 103.792969 149.683594 93.71875 C 154.347656 84.261719 147.171875 58.179688 165.710938 63.871094 C 173.277344 66.195312 176.796875 63.78125 183.863281 59.75 C 185.347656 58.902344 192.902344 52.9375 194.792969 53.511719 C 196.835938 40.054688 191.902344 25.378906 196.320312 11.882812 C 199.621094 1.792969 216.058594 -6.007812 221.066406 7.382812 C 223.351562 13.496094 218.109375 14.484375 215.585938 8.410156 C 213.070312 2.363281 205.335938 4.222656 202.082031 8.4375 C 194.238281 18.601562 199.367188 42.277344 199.488281 54.121094 C 205.382812 57.496094 215.792969 62.21875 223.199219 68.023438 " fill-opacity="1" fill-rule="evenodd"/></g></svg>